<svg width="238" height="48" viewBox="0 0 238 48" fill="none" xmlns="http://www.w3.org/2000/svg">
<g clip-path="url(#clip0_3_68)">
<path d="M24.1943 17.2319L22.0749 38.0652C21.0172 38.2239 19.7489 38.2998 18.3676 38.1495L21.1093 32.0295L17.8039 38.075C16.8356 37.9275 15.8212 37.6663 14.7915 37.2407C12.4836 36.2883 10.6837 34.01 9.37913 31.7149L17.6881 27.8536L8.95775 30.9438C8.13035 29.365 7.54154 27.848 7.18434 26.8268C15.3063 25.6807 22.2563 20.6788 22.2563 20.6788C14.0952 25.1118 6.77273 25.55 6.77273 25.55L5.10118 24.7438C0.986469 22.0553 0 15.6138 0 15.6138C5.23233 24.3814 19.3527 19.3065 24.1943 17.2333V17.2319Z" fill="#F6921E"/>
<path d="M27.8486 40.3814L47.9617 45.8088L53.5596 16.6897C53.5596 16.6897 51.7443 15.1277 48.344 13.5026C48.3607 12.9113 48.3635 12.2595 48.3398 11.5727C48.21 7.88834 47.4035 5.10579 45.9399 3.30226C43.586 0.398918 40.1341 -0.449471 37.9421 0.212104C36.7338 0.577305 35.9803 1.37794 35.8757 2.41033C35.7347 3.79247 36.5677 5.47942 37.5319 7.43324C38.0132 8.40945 38.5253 9.44606 38.9425 10.5108C37.8472 10.3169 36.6961 10.161 35.4892 10.0571C35.2589 8.63981 34.8027 7.22536 33.9474 6.1719C32.2409 4.06778 29.7308 3.45537 28.1346 3.93715C27.2277 4.21105 26.6612 4.81784 26.5802 5.60303C26.477 6.62137 27.0756 7.83356 27.769 9.23958C28.1025 9.9152 28.4555 10.6316 28.7471 11.3662L27.536 12.2033L26.9137 21.8053V12.3059L24.7371 11.8887L24.1929 17.2319L22.0735 38.0651L21.6256 42.4672L27.8458 40.38L27.8486 40.3814ZM47.5194 13.1205C45.4641 12.2033 42.9093 11.3058 39.8983 10.692C39.4406 9.42359 38.8379 8.20157 38.2742 7.05961C37.4049 5.29963 36.5845 3.63656 36.7003 2.49461C36.7952 1.56475 37.6686 1.16584 38.1793 1.01133C39.1448 0.720576 40.395 0.792211 41.6103 1.20938C42.5982 1.5479 44.0381 2.2783 45.2967 3.82899C47.2403 6.22527 47.5682 10.265 47.518 13.1205H47.5194ZM46.8119 16.4776C46.8119 16.1011 47.045 15.7809 47.3728 15.6517C47.3254 16.1208 47.2849 16.4003 47.2835 16.4144C47.2487 16.6419 47.4049 16.8554 47.631 16.8891C47.6519 16.8919 47.6728 16.8933 47.6938 16.8933C47.8961 16.8933 48.0719 16.7445 48.104 16.538C48.1082 16.5057 48.1514 16.2219 48.1989 15.75C48.4263 15.9101 48.5742 16.1756 48.5742 16.4762C48.5742 16.9664 48.1793 17.3639 47.6924 17.3639C47.2054 17.3639 46.8105 16.9664 46.8105 16.4762L46.8119 16.4776ZM39.3569 14.2892C39.3569 13.9745 39.5202 13.6992 39.7643 13.5419C39.795 13.7948 39.816 14.049 39.8229 14.3018C39.8299 14.5322 40.0183 14.7134 40.2499 14.7078C40.4787 14.7007 40.6587 14.5097 40.6531 14.2779C40.6462 14.0111 40.6252 13.7442 40.5931 13.4773C40.9029 13.615 41.1192 13.9268 41.1192 14.2892C41.1192 14.7794 40.7243 15.1769 40.2373 15.1769C39.7504 15.1769 39.3555 14.7794 39.3555 14.2892H39.3569ZM29.4043 30.9887L30.8554 9.90677L29.449 10.8802C29.1615 10.1807 28.8295 9.50646 28.5127 8.86736C27.903 7.6327 27.3267 6.46546 27.4063 5.68871C27.4663 5.09736 28.0383 4.83891 28.3732 4.73778C29.6736 4.34589 31.8433 4.90072 33.3055 6.70144C34.0157 7.57651 34.4162 8.76763 34.6339 9.99386C33.7799 9.93908 32.9009 9.90818 31.9968 9.90818L29.4043 30.9901V30.9887ZM27.8486 41.321L21.6284 43.3044L43.9181 48.0014L47.5473 46.6445L27.8486 41.3225V41.321Z" fill="#F21414"/>
<path d="M38.8644 26.8788L38.2323 26.7523C38.1612 26.7383 38.1081 26.7102 38.0705 26.6681C38.0328 26.6259 38.0091 26.5768 37.9965 26.5206L37.9114 25.8618L36.5733 25.5935L36.244 26.1694C36.2175 26.2116 36.1771 26.2453 36.124 26.2734C36.071 26.3001 36.011 26.3071 35.9426 26.2944L35.305 26.1666L37.3686 22.8981L38.2044 23.0652L38.8644 26.8802V26.8788ZM37.8361 25.2649L37.7021 24.2296C37.6909 24.1636 37.6784 24.085 37.6686 23.9965C37.6575 23.908 37.6477 23.8111 37.6407 23.7085C37.5975 23.8026 37.5528 23.8883 37.5096 23.967C37.4649 24.0456 37.4258 24.1131 37.3882 24.1707L36.8733 25.071L37.8374 25.2649H37.8361Z" fill="white"/>
<path d="M42.2577 28.2497L41.5866 28.1148C41.4903 28.0952 41.4066 28.0657 41.334 28.0249C41.2629 27.9842 41.2001 27.9238 41.1485 27.8423L40.8094 27.2608C40.6671 27.2636 40.5164 27.2496 40.3587 27.2187C40.0853 27.1639 39.8453 27.067 39.6374 26.9293C39.4295 26.7917 39.262 26.6259 39.1351 26.4307C39.0067 26.2354 38.9216 26.0191 38.8769 25.7818C38.8323 25.5444 38.8365 25.2972 38.8867 25.0401C38.9369 24.7845 39.029 24.5541 39.1602 24.3519C39.2913 24.1496 39.4532 23.9824 39.6457 23.8532C39.8383 23.724 40.056 23.6341 40.3001 23.5877C40.5443 23.54 40.8024 23.5442 41.0759 23.599C41.3494 23.6538 41.5894 23.7507 41.7959 23.8883C42.0024 24.0274 42.1684 24.1931 42.2954 24.387C42.4224 24.5808 42.5089 24.7971 42.5521 25.0345C42.5968 25.2719 42.5926 25.5191 42.5424 25.7733C42.5117 25.925 42.467 26.0683 42.4084 26.2031C42.3498 26.3366 42.2786 26.4602 42.1949 26.5711C42.1112 26.6821 42.0163 26.7818 41.9103 26.8703C41.8029 26.9588 41.687 27.0319 41.5615 27.0909L42.2591 28.2497H42.2577ZM39.7225 25.2087C39.6876 25.3857 39.6792 25.5486 39.696 25.6975C39.7127 25.8464 39.7546 25.9784 39.8202 26.0922C39.8857 26.2059 39.975 26.3015 40.088 26.3773C40.2011 26.4532 40.3364 26.5065 40.4941 26.5388C40.6503 26.5697 40.7941 26.5726 40.9266 26.5459C41.0592 26.5192 41.1778 26.4658 41.281 26.3857C41.3843 26.3057 41.4736 26.2003 41.5461 26.0683C41.6187 25.9377 41.6731 25.7832 41.708 25.6062C41.7429 25.4306 41.7512 25.2691 41.7345 25.1202C41.7177 24.9713 41.6759 24.8393 41.6103 24.7255C41.5447 24.6117 41.4568 24.5162 41.3438 24.4389C41.2322 24.3631 41.0982 24.3083 40.942 24.2774C40.7843 24.2451 40.6392 24.2437 40.5052 24.2704C40.3713 24.2971 40.2527 24.3519 40.1494 24.4319C40.0462 24.512 39.9569 24.6173 39.8843 24.7494C39.8118 24.88 39.7574 25.0331 39.7225 25.2087Z" fill="white"/>
<path d="M43.9781 27.2299C44.0883 27.2523 44.1888 27.2537 44.2823 27.2341C44.3758 27.2144 44.4581 27.1779 44.532 27.1217C44.6046 27.0655 44.6674 26.9911 44.7176 26.8998C44.7678 26.8085 44.8055 26.7003 44.8306 26.5753L45.2464 24.4782L46.0627 24.6426L45.6469 26.7397C45.6036 26.9574 45.5297 27.1498 45.4236 27.317C45.3176 27.4841 45.1864 27.6204 45.0302 27.7257C44.8739 27.831 44.6953 27.9013 44.493 27.9364C44.2921 27.9715 44.0744 27.9659 43.8414 27.9195C43.607 27.8718 43.4033 27.7931 43.2302 27.6836C43.0586 27.5726 42.9191 27.4392 42.8158 27.2818C42.7112 27.1245 42.6428 26.9475 42.6093 26.7523C42.5759 26.5571 42.5814 26.3506 42.6233 26.1329L43.0391 24.0358L43.8553 24.2001L43.4409 26.2958C43.4158 26.4208 43.4102 26.5346 43.4214 26.6399C43.434 26.7439 43.4619 26.8366 43.5079 26.918C43.5539 26.9995 43.6167 27.0655 43.6949 27.1203C43.773 27.1737 43.8679 27.2116 43.9767 27.2341L43.9781 27.2299Z" fill="white"/>
<path d="M46.5301 28.4168L45.7097 28.2525L46.4115 24.7114L47.2319 24.8758L46.5301 28.4168Z" fill="white"/>
<path d="M32.5451 27.567L32.3819 28.3929L33.4883 28.6148L33.3683 29.223L32.2619 29.0011L32.0944 29.8439L33.5386 30.1332L33.413 30.7653L31.1484 30.3102L31.8503 26.7692L34.1148 27.2243L33.9892 27.8563L32.5451 27.567Z" fill="white"/>
<path d="M36.6431 31.4157L35.8268 31.2514C35.7738 31.2401 35.7333 31.219 35.7054 31.1867C35.6775 31.1544 35.658 31.1179 35.6454 31.0786L35.1864 29.6978C35.1669 29.7316 35.1459 29.7582 35.125 29.7821L34.2404 30.7977C34.2111 30.8258 34.179 30.8496 34.1427 30.8721C34.1064 30.8932 34.0646 30.8988 34.0157 30.889L33.2525 30.7359L34.7455 29.1402L33.9976 27.2032L34.8139 27.3676C34.8669 27.3788 34.9045 27.3929 34.9269 27.4111C34.9492 27.4294 34.9659 27.4575 34.9799 27.494L35.4431 28.8284C35.4557 28.8087 35.4682 28.7905 35.4836 28.7736C35.4975 28.7568 35.5129 28.7385 35.531 28.7202L36.3542 27.7834C36.3836 27.7525 36.4129 27.7314 36.4408 27.7201C36.4687 27.7089 36.5022 27.7075 36.5384 27.7145L37.3212 27.8718L35.884 29.3355L36.6445 31.4185L36.6431 31.4157Z" fill="white"/>
<path d="M38.6104 28.1274C38.8588 28.1766 39.0653 28.2496 39.2313 28.3437C39.3974 28.4378 39.5271 28.5488 39.622 28.6766C39.7169 28.803 39.7769 28.9421 39.8034 29.0952C39.8299 29.2469 39.8271 29.4056 39.795 29.5685C39.7602 29.7455 39.7002 29.9014 39.6136 30.0377C39.5285 30.1739 39.4169 30.2835 39.2802 30.365C39.1434 30.4464 38.9802 30.4998 38.7904 30.5237C38.6007 30.5476 38.3844 30.5349 38.1416 30.4858L37.7161 30.4001L37.4816 31.5842L36.6654 31.4198L37.3672 27.8788L38.6076 28.1274H38.6104ZM38.2658 29.8649C38.4779 29.9071 38.6411 29.8874 38.7541 29.8031C38.8672 29.7202 38.9425 29.5868 38.9788 29.4028C38.9941 29.3213 38.9969 29.2455 38.9858 29.1738C38.9746 29.1022 38.9495 29.0376 38.9104 28.98C38.8714 28.9224 38.8155 28.8733 38.7472 28.8325C38.6774 28.7918 38.5909 28.7609 38.4876 28.7398L38.0621 28.6541L37.8402 29.7764L38.2658 29.8621V29.8649Z" fill="white"/>
<path d="M42.3275 32.5562L41.5894 32.4073C41.4526 32.3792 41.3647 32.3076 41.3257 32.1924L40.9448 31.0476C40.9266 30.9985 40.9015 30.9606 40.8722 30.9339C40.8429 30.9072 40.7969 30.8875 40.7327 30.8749L40.5248 30.8327L40.2652 32.1432L39.449 31.9789L40.1508 28.4379L41.295 28.6682C41.5489 28.7188 41.761 28.789 41.9298 28.8775C42.0987 28.966 42.2312 29.0685 42.3261 29.1851C42.421 29.3017 42.481 29.4295 42.5075 29.5672C42.534 29.7062 42.5312 29.8495 42.5019 30.0012C42.4796 30.1164 42.4419 30.2217 42.3917 30.3172C42.3414 30.4128 42.2773 30.4984 42.2005 30.5729C42.1238 30.6473 42.0345 30.7105 41.934 30.7611C41.8322 30.8117 41.7205 30.8468 41.5977 30.8679C41.6452 30.9058 41.6884 30.9507 41.7275 31.0013C41.7666 31.0519 41.7987 31.1094 41.8238 31.1741L42.3289 32.5562H42.3275ZM40.9657 30.3313C41.0773 30.3538 41.1736 30.358 41.2573 30.3453C41.341 30.3327 41.4122 30.306 41.4722 30.2667C41.5322 30.2259 41.5796 30.1754 41.6159 30.1122C41.6522 30.049 41.6773 29.9787 41.6926 29.9015C41.7233 29.7456 41.6968 29.6149 41.6145 29.5068C41.5308 29.3986 41.3843 29.3242 41.1736 29.282L40.8457 29.216L40.6378 30.2667L40.9657 30.3327V30.3313Z" fill="white"/>
<path d="M43.7311 29.813L43.5679 30.6389L44.6744 30.8608L44.5544 31.469L43.4479 31.2471L43.2805 32.0898L44.7246 32.3792L44.599 33.0113L42.3345 32.5562L43.0363 29.0151L45.3008 29.4702L45.1753 30.1023L43.7311 29.813Z" fill="white"/>
<path d="M47.3142 30.6235C47.2822 30.6572 47.2515 30.6811 47.2208 30.6951C47.1901 30.7091 47.1538 30.712 47.1119 30.7035C47.0757 30.6965 47.038 30.6768 46.9989 30.6445C46.9612 30.6122 46.918 30.5771 46.8692 30.5364C46.8203 30.497 46.7645 30.4577 46.7003 30.4198C46.6361 30.3819 46.5594 30.3552 46.4701 30.3369C46.3166 30.306 46.1966 30.3159 46.1087 30.3664C46.0208 30.417 45.9664 30.4985 45.9441 30.6094C45.9301 30.6811 45.9413 30.7443 45.9762 30.8004C46.0124 30.8566 46.0627 30.9086 46.1296 30.9578C46.1966 31.0069 46.2734 31.0547 46.3627 31.101C46.4506 31.1488 46.5413 31.1994 46.632 31.2541C46.7226 31.3089 46.8105 31.3693 46.8957 31.4353C46.9808 31.5014 47.0519 31.5786 47.1105 31.6657C47.1691 31.7528 47.211 31.8539 47.2347 31.9677C47.2584 32.0815 47.257 32.2121 47.2277 32.3596C47.1956 32.5239 47.137 32.6714 47.0519 32.802C46.9668 32.9327 46.8608 33.0408 46.7324 33.1265C46.604 33.2108 46.4561 33.2684 46.2873 33.2979C46.1185 33.3274 45.9343 33.3217 45.7348 33.281C45.6259 33.2585 45.5157 33.2248 45.4069 33.1799C45.2981 33.1349 45.1948 33.0801 45.0957 33.0183C44.9981 32.9551 44.9074 32.8863 44.8251 32.8119C44.7427 32.736 44.6744 32.6574 44.6185 32.5731L44.9367 32.2374C44.9618 32.2135 44.9911 32.1952 45.026 32.184C45.0609 32.1714 45.0971 32.1685 45.1334 32.177C45.1822 32.1868 45.2269 32.2121 45.2702 32.2528C45.3134 32.2936 45.3622 32.3385 45.4167 32.3891C45.4711 32.4382 45.5353 32.4874 45.6106 32.5337C45.6846 32.5801 45.7766 32.6152 45.8869 32.6377C46.0348 32.6672 46.1562 32.6574 46.251 32.6082C46.3459 32.559 46.4073 32.4635 46.4366 32.3202C46.4534 32.2374 46.4436 32.1657 46.4087 32.1053C46.3738 32.0449 46.3236 31.9902 46.2566 31.941C46.1896 31.8918 46.1129 31.8455 46.025 31.8005C45.9371 31.7556 45.8464 31.7078 45.7543 31.6573C45.6622 31.6067 45.5743 31.5477 45.4906 31.4831C45.4069 31.4185 45.3357 31.3412 45.2771 31.2513C45.2185 31.1614 45.1781 31.0547 45.1557 30.9339C45.1334 30.8117 45.1376 30.6684 45.1711 30.5041C45.1976 30.3706 45.2492 30.247 45.3274 30.1319C45.4055 30.0167 45.506 29.9198 45.6287 29.8411C45.7515 29.7624 45.8938 29.7091 46.0543 29.6796C46.2162 29.6501 46.3934 29.6557 46.5859 29.6936C46.6933 29.7147 46.7966 29.7442 46.8957 29.7821C46.9947 29.82 47.0868 29.8636 47.1719 29.9155C47.257 29.9675 47.3352 30.0237 47.4049 30.0869C47.4761 30.1487 47.5361 30.2161 47.5877 30.2864L47.3101 30.6277L47.3142 30.6235Z" fill="white"/>
<path d="M49.6988 31.1011C49.6667 31.1348 49.636 31.1587 49.6053 31.1727C49.5746 31.1867 49.5383 31.1896 49.4965 31.1811C49.4588 31.1741 49.4225 31.1544 49.3835 31.1221C49.3458 31.0898 49.3025 31.0547 49.2537 31.014C49.2063 30.9732 49.1491 30.9353 49.0849 30.8974C49.0207 30.8595 48.9439 30.8328 48.8546 30.8145C48.7012 30.7836 48.5812 30.7935 48.4933 30.844C48.4054 30.8946 48.3509 30.9761 48.3286 31.087C48.3147 31.1587 48.3258 31.2219 48.3607 31.278C48.397 31.3342 48.4472 31.3862 48.5142 31.4354C48.5812 31.4845 48.6579 31.5323 48.7472 31.5786C48.8351 31.6264 48.9258 31.677 49.0165 31.7317C49.1072 31.7865 49.1951 31.8469 49.2802 31.9129C49.3653 31.979 49.4365 32.0562 49.4951 32.1433C49.5537 32.2304 49.5955 32.3315 49.6193 32.4453C49.643 32.5591 49.6416 32.6897 49.6123 32.8372C49.5802 33.0015 49.5216 33.1476 49.4365 33.2796C49.3514 33.4103 49.2453 33.5184 49.117 33.6041C48.9886 33.6884 48.8407 33.746 48.6719 33.7755C48.503 33.805 48.3189 33.7993 48.1193 33.7586C48.0105 33.7361 47.9003 33.7024 47.7914 33.6575C47.6826 33.6125 47.5794 33.5577 47.4803 33.4959C47.3826 33.4327 47.2919 33.3639 47.2096 33.2895C47.1273 33.215 47.0589 33.135 47.0031 33.0507L47.3212 32.715C47.3463 32.6911 47.3756 32.6728 47.4105 32.6616C47.4454 32.649 47.4817 32.6476 47.5194 32.6546C47.5682 32.6644 47.6128 32.6897 47.6561 32.7304C47.6993 32.7712 47.7482 32.8161 47.8026 32.8653C47.857 32.9144 47.9212 32.9636 47.9965 33.0099C48.0705 33.0563 48.1626 33.0914 48.2728 33.1139C48.4207 33.1434 48.5421 33.1335 48.6384 33.0844C48.7333 33.0352 48.7947 32.9397 48.824 32.7964C48.8407 32.7136 48.8309 32.6419 48.796 32.5815C48.7612 32.5211 48.7109 32.4664 48.644 32.4172C48.577 32.368 48.5002 32.3217 48.4123 32.2767C48.3244 32.2318 48.2337 32.184 48.1417 32.1335C48.0496 32.0829 47.9617 32.0239 47.8779 31.9593C47.7942 31.8947 47.7231 31.8174 47.6645 31.7275C47.6059 31.6376 47.5654 31.5309 47.5431 31.4101C47.5207 31.2879 47.5249 31.1446 47.5584 30.9803C47.5849 30.8468 47.6366 30.7232 47.7147 30.608C47.7928 30.4929 47.8933 30.3959 48.0161 30.3173C48.1389 30.2386 48.2812 30.1853 48.4416 30.1558C48.6035 30.1263 48.7807 30.1319 48.9732 30.1698C49.0807 30.1909 49.1839 30.2204 49.283 30.2583C49.3821 30.2962 49.4742 30.3398 49.5593 30.3917C49.6444 30.4437 49.7225 30.4999 49.7923 30.5631C49.862 30.6249 49.9234 30.6923 49.9751 30.7626L49.696 31.1039L49.6988 31.1011Z" fill="white"/>
<path d="M60.4648 20.9218C60.7955 20.7266 61.2978 20.5397 61.9704 20.3628C62.6429 20.1858 63.3196 20.0973 64.0033 20.0973C64.9786 20.0973 65.8409 20.2406 66.5916 20.5243C67.3422 20.8094 67.8236 21.2561 68.0385 21.8643C68.3901 22.8855 68.7696 24.0724 69.1784 25.4264C69.5872 26.7805 69.9975 28.1795 70.4063 29.622C70.8151 31.0645 71.2155 32.4874 71.6048 33.8906C71.9941 35.2938 72.336 36.5355 72.6276 37.6143C72.3932 37.8896 72.0429 38.1101 71.5755 38.2773C71.1081 38.4444 70.5514 38.5273 69.9082 38.5273C69.4407 38.5273 69.0459 38.4879 68.7236 38.4093C68.4012 38.3306 68.1389 38.2126 67.9338 38.0553C67.7287 37.898 67.5627 37.6929 67.4371 37.4373C67.3101 37.1831 67.1985 36.8881 67.1008 36.5538L66.5748 34.5227H61.2825C61.1262 35.1112 60.9699 35.7194 60.8151 36.3487C60.6588 36.9766 60.5025 37.5848 60.3476 38.1733C60.0742 38.2716 59.7867 38.3545 59.4853 38.4233C59.1826 38.4922 58.817 38.5259 58.3887 38.5259C57.3938 38.5259 56.6585 38.3545 56.1813 38.0104C55.7041 37.6676 55.4655 37.1915 55.4655 36.5819C55.4655 36.308 55.5046 36.0327 55.5827 35.7574C55.6609 35.4821 55.7488 35.159 55.8464 34.7854C55.9832 34.2558 56.1729 33.5985 56.4171 32.8133C56.6613 32.0281 56.9292 31.1797 57.2208 30.2667C57.5124 29.3537 57.825 28.4168 58.157 27.4547C58.4877 26.4939 58.8003 25.5851 59.0933 24.7311C59.3863 23.8771 59.6528 23.1172 59.897 22.45C60.1411 21.7828 60.3309 21.273 60.4676 20.919L60.4648 20.9218ZM63.974 24.7199C63.7005 25.5444 63.3936 26.4616 63.0531 27.4729C62.7113 28.4843 62.4043 29.5096 62.1322 30.5491H65.7586C65.4851 29.49 65.2074 28.4548 64.9256 27.4434C64.6423 26.4335 64.3842 25.5247 64.1512 24.7199H63.9754H63.974Z" fill="#353131"/>
<path d="M73.8596 29.2835C73.8596 27.7524 74.0982 26.3984 74.5754 25.2213C75.0526 24.0442 75.7056 23.0582 76.5344 22.2632C77.3632 21.4682 78.3371 20.8642 79.4589 20.4526C80.5793 20.0411 81.7932 19.8346 83.0992 19.8346C84.4052 19.8346 85.6191 20.0411 86.7395 20.4526C87.8599 20.8642 88.8394 21.4682 89.678 22.2632C90.5166 23.0582 91.1738 24.0442 91.6523 25.2213C92.1295 26.3984 92.3681 27.7538 92.3681 29.2835C92.3681 31.2064 92.0165 32.8414 91.3161 34.1856C90.6142 35.5298 89.6585 36.5847 88.4501 37.3502C88.7432 37.4878 89.0892 37.6353 89.4882 37.7912C89.8873 37.9485 90.3073 38.1059 90.7454 38.2618C91.1835 38.4191 91.637 38.5708 92.1058 38.7183C92.5746 38.8658 93.0127 38.9978 93.4216 39.1158C93.4411 39.2338 93.4509 39.3363 93.4509 39.4248V39.6748C93.4509 40.7929 93.1634 41.6076 92.5886 42.1188C92.0137 42.6287 91.2575 42.8844 90.3226 42.8844C89.3878 42.8844 88.499 42.6343 87.5446 42.1343C86.5888 41.6343 85.6149 40.9123 84.6201 39.9698L83.3336 38.7632H83.0992C81.7737 38.7632 80.5444 38.5525 79.4143 38.1297C78.2827 37.7084 77.3088 37.0945 76.4897 36.2897C75.6707 35.4848 75.0275 34.4946 74.5601 33.3161C74.0926 32.139 73.8582 30.7948 73.8582 29.2835H73.8596ZM79.124 29.2835C79.124 31.0701 79.484 32.4045 80.2054 33.2866C80.9268 34.1701 81.8909 34.6112 83.1006 34.6112C84.3103 34.6112 85.3038 34.1701 86.0251 33.2866C86.7465 32.4031 87.1065 31.0687 87.1065 29.2835C87.1065 27.4982 86.7507 26.1919 86.0391 25.3098C85.3275 24.4263 84.3578 23.9852 83.1299 23.9852C81.9021 23.9852 80.9519 24.4221 80.2207 25.2957C79.4896 26.1694 79.124 27.4996 79.124 29.2849V29.2835Z" fill="#353131"/>
<path d="M111.057 31.6376C111.057 32.6967 110.877 33.6645 110.515 34.5367C110.154 35.4104 109.633 36.1563 108.951 36.7743C108.269 37.3923 107.44 37.8685 106.465 38.2028C105.489 38.5371 104.389 38.7028 103.161 38.7028C101.933 38.7028 100.831 38.5357 99.8566 38.2028C98.8813 37.8699 98.0525 37.3937 97.3716 36.7743C96.6893 36.1563 96.1675 35.4104 95.8075 34.5367C95.4461 33.6631 95.2661 32.6967 95.2661 31.6376V20.3922C95.481 20.3529 95.8215 20.2995 96.2903 20.2307C96.7577 20.1619 97.207 20.1282 97.6353 20.1282C98.0637 20.1282 98.4781 20.1633 98.8199 20.2307C99.1604 20.2995 99.4492 20.4217 99.6822 20.5987C99.9166 20.7757 100.091 21.0215 100.208 21.3347C100.325 21.6494 100.384 22.0609 100.384 22.5708V31.5491C100.384 32.4916 100.642 33.2276 101.158 33.7572C101.675 34.2867 102.343 34.5522 103.162 34.5522C103.981 34.5522 104.673 34.2867 105.18 33.7572C105.686 33.2276 105.94 32.4916 105.94 31.5491V20.3922C106.155 20.3529 106.495 20.2995 106.964 20.2307C107.432 20.1619 107.881 20.1282 108.309 20.1282C108.738 20.1282 109.152 20.1633 109.494 20.2307C109.834 20.2995 110.123 20.4217 110.356 20.5987C110.591 20.7757 110.765 21.0215 110.882 21.3347C110.999 21.6494 111.058 22.0609 111.058 22.5708V31.6376H111.057Z" fill="#353131"/>
<path d="M119.887 38.1142C119.673 38.1732 119.336 38.2322 118.879 38.2912C118.42 38.3502 117.967 38.3797 117.518 38.3797C117.069 38.3797 116.675 38.3446 116.334 38.2772C115.992 38.2084 115.704 38.0861 115.471 37.9092C115.237 37.7322 115.062 37.4878 114.945 37.1731C114.828 36.8599 114.769 36.447 114.769 35.9371V20.3936C114.984 20.3543 115.325 20.3009 115.794 20.2321C116.261 20.1632 116.71 20.1295 117.139 20.1295C117.567 20.1295 117.981 20.1646 118.323 20.2321C118.664 20.3009 118.953 20.4231 119.186 20.6001C119.42 20.777 119.594 21.0229 119.712 21.3361C119.829 21.6507 119.887 22.0623 119.887 22.5721V38.1156V38.1142Z" fill="#353131"/>
<path d="M123.688 23.1298C123.688 22.2856 123.932 21.6184 124.419 21.1282C124.906 20.638 125.569 20.3922 126.408 20.3922H136.057C136.194 20.6085 136.316 20.8923 136.423 21.2462C136.53 21.6002 136.583 21.9724 136.583 22.3643C136.583 23.1101 136.423 23.6397 136.101 23.9543C135.778 24.269 135.356 24.4249 134.828 24.4249H128.658V27.1625H135.238C135.375 27.3788 135.496 27.6583 135.604 28.001C135.711 28.3452 135.764 28.7132 135.764 29.1051C135.764 29.8509 135.608 30.3804 135.297 30.6951C134.986 31.0097 134.566 31.1656 134.04 31.1656H128.66V34.2572H136.175C136.311 34.4735 136.433 34.7572 136.54 35.1112C136.648 35.4638 136.701 35.8374 136.701 36.2293C136.701 36.9751 136.54 37.5103 136.218 37.8334C135.896 38.1564 135.473 38.3193 134.945 38.3193H126.406C125.568 38.3193 124.905 38.0735 124.418 37.5833C123.931 37.0931 123.687 36.4259 123.687 35.5817V23.1284L123.688 23.1298Z" fill="#353131"/>
<path d="M138.778 22.5708C138.876 22.2955 139.013 22.0216 139.187 21.7463C139.363 21.471 139.582 21.221 139.846 20.9962C140.109 20.7715 140.416 20.5847 140.767 20.4372C141.118 20.2897 141.507 20.2167 141.936 20.2167C142.501 20.2167 142.998 20.3585 143.427 20.6437C143.856 20.9288 144.295 21.4148 144.743 22.1003L147.024 25.6034L150.387 20.5987C150.543 20.5201 150.762 20.447 151.046 20.3782C151.327 20.3094 151.605 20.2757 151.879 20.2757C152.776 20.2757 153.478 20.492 153.984 20.9232C154.491 21.3558 154.745 21.8854 154.745 22.5132C154.745 23.0624 154.602 23.554 154.32 23.9853C154.037 24.4165 153.652 24.9376 153.165 25.5458L150.153 29.2554L154.919 36.1141C154.763 36.8403 154.426 37.4148 153.91 37.8362C153.394 38.2576 152.696 38.4697 151.819 38.4697C151.253 38.4697 150.767 38.3264 150.356 38.0427C149.947 37.7589 149.528 37.2729 149.099 36.5847L146.73 32.8161L143.045 38.4093C142.889 38.4289 142.742 38.443 142.607 38.4528C142.47 38.4627 142.333 38.4669 142.198 38.4669C141.087 38.4669 140.268 38.2407 139.742 37.7898C139.216 37.339 138.953 36.7785 138.953 36.1113C138.953 35.5425 139.074 35.0466 139.318 34.6252C139.562 34.2039 139.907 33.708 140.356 33.1392L143.427 29.1655L138.778 22.5708Z" fill="#353131"/>
<path d="M162.699 38.1143C162.484 38.1733 162.148 38.2322 161.69 38.2912C161.231 38.3502 160.779 38.3797 160.33 38.3797C159.881 38.3797 159.487 38.3446 159.145 38.2772C158.803 38.2084 158.516 38.0862 158.283 37.9092C158.049 37.7322 157.874 37.4878 157.757 37.1732C157.64 36.8599 157.581 36.447 157.581 35.9371V22.0721C157.581 21.6606 157.693 21.3417 157.917 21.1156C158.141 20.8908 158.449 20.7082 158.838 20.5706C159.501 20.3346 160.256 20.1632 161.104 20.0551C161.953 19.9469 162.805 19.8936 163.663 19.8936C166.353 19.8936 168.41 20.4723 169.833 21.6311C171.256 22.7899 171.968 24.3588 171.968 26.3407C171.968 27.3029 171.817 28.171 171.514 28.9463C171.212 29.7217 170.764 30.3889 170.169 30.9479C169.575 31.5069 168.824 31.9396 167.917 32.243C167.01 32.5478 165.963 32.6995 164.774 32.6995H162.698V38.1157L162.699 38.1143ZM164.22 28.664C165.039 28.664 165.668 28.473 166.106 28.0895C166.544 27.706 166.765 27.1231 166.765 26.3379C166.765 25.5528 166.536 25.0176 166.077 24.6159C165.619 24.2142 164.951 24.0119 164.073 24.0119C163.761 24.0119 163.503 24.0175 163.299 24.0273C163.094 24.0372 162.885 24.0625 162.67 24.1004V28.664H164.22Z" fill="#353131"/>
<path d="M179.66 32.4621V38.1143C179.445 38.1733 179.109 38.2322 178.651 38.2912C178.194 38.3502 177.74 38.3797 177.291 38.3797C176.842 38.3797 176.448 38.3446 176.106 38.2772C175.765 38.2084 175.483 38.0862 175.258 37.9092C175.033 37.7322 174.863 37.4878 174.746 37.1732C174.629 36.8599 174.57 36.447 174.57 35.9371V22.0721C174.57 21.6606 174.682 21.3417 174.906 21.1156C175.13 20.8908 175.438 20.7082 175.827 20.5706C176.49 20.3346 177.26 20.1632 178.138 20.0551C179.016 19.9469 179.952 19.8936 180.945 19.8936C183.635 19.8936 185.663 20.4624 187.027 21.6016C188.392 22.7393 189.074 24.2802 189.074 26.2228C189.074 27.4406 188.762 28.48 188.138 29.3438C187.514 30.2077 186.773 30.8749 185.915 31.3454C186.617 32.3076 187.309 33.2107 187.991 34.0535C188.674 34.8977 189.21 35.6632 189.6 36.3501C189.405 37.0369 189.049 37.5622 188.533 37.9246C188.017 38.287 187.436 38.4696 186.793 38.4696C186.363 38.4696 185.993 38.4205 185.682 38.3221C185.37 38.2238 185.098 38.0862 184.863 37.9106C184.629 37.7336 184.414 37.5187 184.22 37.2631C184.025 37.0088 183.84 36.7335 183.665 36.4385L181.208 32.4649H179.657L179.66 32.4621ZM181.502 28.546C182.243 28.546 182.827 28.355 183.257 27.9715C183.686 27.5895 183.9 27.0248 183.9 26.2789C183.9 25.5331 183.662 24.9684 183.185 24.5864C182.706 24.2043 181.951 24.0119 180.919 24.0119C180.626 24.0119 180.393 24.0217 180.217 24.0414C180.041 24.0611 179.846 24.0906 179.632 24.1299V28.546H181.503H181.502Z" fill="#353131"/>
<path d="M192.381 23.1298C192.381 22.2856 192.625 21.6184 193.112 21.1282C193.599 20.638 194.262 20.3922 195.1 20.3922H204.75C204.887 20.6085 205.008 20.8923 205.116 21.2462C205.223 21.6002 205.276 21.9724 205.276 22.3643C205.276 23.1101 205.116 23.6397 204.794 23.9543C204.471 24.269 204.048 24.4249 203.521 24.4249H197.351V27.1625H203.931C204.068 27.3788 204.189 27.6583 204.297 28.001C204.404 28.3452 204.457 28.7132 204.457 29.1051C204.457 29.8509 204.301 30.3804 203.99 30.6951C203.679 31.0097 203.259 31.1656 202.733 31.1656H197.352V34.2572H204.867C205.004 34.4735 205.126 34.7572 205.233 35.1112C205.34 35.4638 205.394 35.8374 205.394 36.2293C205.394 36.9751 205.233 37.5103 204.911 37.8334C204.588 38.1564 204.166 38.3193 203.638 38.3193H195.099C194.26 38.3193 193.598 38.0735 193.111 37.5833C192.624 37.0931 192.38 36.4259 192.38 35.5817V23.1284L192.381 23.1298Z" fill="#353131"/>
<path d="M213.581 31.1375C212.723 30.8425 211.943 30.5448 211.241 30.24C210.539 29.9352 209.935 29.5672 209.429 29.1359C208.921 28.7047 208.527 28.1892 208.244 27.5909C207.961 26.9925 207.82 26.2621 207.82 25.3983C207.82 23.731 208.458 22.3952 209.736 21.3951C211.012 20.3936 212.801 19.8936 215.102 19.8936C215.94 19.8936 216.72 19.9525 217.442 20.0705C218.163 20.1885 218.781 20.3697 219.299 20.6155C219.815 20.8613 220.22 21.1746 220.513 21.558C220.806 21.9415 220.951 22.3868 220.951 22.898C220.951 23.4093 220.834 23.8447 220.599 24.2085C220.365 24.5723 220.083 24.8814 219.751 25.1356C219.321 24.8603 218.746 24.6201 218.025 24.415C217.304 24.2085 216.514 24.106 215.656 24.106C214.798 24.106 214.135 24.2282 213.726 24.474C213.317 24.7198 213.112 25.0288 213.112 25.4011C213.112 25.696 213.239 25.9362 213.492 26.1216C213.744 26.3084 214.125 26.4798 214.632 26.6371L216.182 27.1372C218.014 27.7257 219.423 28.4772 220.408 29.3888C221.392 30.3018 221.884 31.5435 221.884 33.1124C221.884 34.7811 221.231 36.1295 219.925 37.1605C218.619 38.1915 216.698 38.7056 214.164 38.7056C213.267 38.7056 212.434 38.6326 211.664 38.4851C210.894 38.3376 210.221 38.1227 209.646 37.8375C209.071 37.5538 208.624 37.1998 208.301 36.7771C207.979 36.3557 207.819 35.8697 207.819 35.3205C207.819 34.7713 207.985 34.2656 208.315 33.8625C208.646 33.4608 209.007 33.1517 209.397 32.9354C209.942 33.368 210.61 33.7403 211.4 34.0535C212.19 34.3681 213.052 34.524 213.988 34.524C214.925 34.524 215.617 34.3766 216.006 34.083C216.395 33.788 216.591 33.4453 216.591 33.052C216.591 32.6587 216.434 32.3609 216.123 32.1545C215.811 31.948 215.373 31.7471 214.808 31.5505L213.58 31.1389L213.581 31.1375Z" fill="#353131"/>
<path d="M229.694 31.1375C228.836 30.8425 228.056 30.5448 227.354 30.24C226.652 29.9352 226.048 29.5672 225.541 29.1359C225.034 28.7047 224.64 28.1892 224.357 27.5909C224.074 26.9925 223.933 26.2621 223.933 25.3983C223.933 23.731 224.57 22.3952 225.848 21.3951C227.125 20.3936 228.914 19.8936 231.215 19.8936C232.053 19.8936 232.833 19.9525 233.555 20.0705C234.276 20.1885 234.894 20.3697 235.412 20.6155C235.928 20.8613 236.333 21.1746 236.626 21.558C236.919 21.9415 237.064 22.3868 237.064 22.898C237.064 23.4093 236.947 23.8447 236.712 24.2085C236.478 24.5723 236.196 24.8814 235.864 25.1356C235.434 24.8603 234.859 24.6201 234.138 24.415C233.416 24.2085 232.627 24.106 231.769 24.106C230.911 24.106 230.248 24.2282 229.839 24.474C229.43 24.7198 229.225 25.0288 229.225 25.4011C229.225 25.696 229.352 25.9362 229.605 26.1216C229.857 26.3084 230.238 26.4798 230.744 26.6371L232.295 27.1372C234.127 27.7257 235.536 28.4772 236.521 29.3888C237.505 30.3018 237.997 31.5435 237.997 33.1124C237.997 34.7811 237.344 36.1295 236.038 37.1605C234.732 38.1915 232.811 38.7056 230.277 38.7056C229.38 38.7056 228.547 38.6326 227.777 38.4851C227.007 38.3376 226.334 38.1227 225.759 37.8375C225.184 37.5538 224.736 37.1998 224.414 36.7771C224.092 36.3557 223.931 35.8697 223.931 35.3205C223.931 34.7713 224.097 34.2656 224.428 33.8625C224.759 33.4608 225.12 33.1517 225.509 32.9354C226.055 33.368 226.723 33.7403 227.513 34.0535C228.303 34.3681 229.165 34.524 230.101 34.524C231.038 34.524 231.73 34.3766 232.119 34.083C232.508 33.788 232.703 33.4453 232.703 33.052C232.703 32.6587 232.547 32.3609 232.236 32.1545C231.924 31.948 231.485 31.7471 230.92 31.5505L229.692 31.1389L229.694 31.1375Z" fill="#353131"/>
</g>
<defs>
<clipPath id="clip0_3_68">
<rect width="238" height="48" fill="white"/>
</clipPath>
</defs>
</svg>
