<svg width="40" height="40" viewBox="0 0 40 40" fill="none" xmlns="http://www.w3.org/2000/svg">
<g id="iconspace_Money_25px">
<path id="path" fill-rule="evenodd" clip-rule="evenodd" d="M8.80001 3.20001H31.2C34.2928 3.20001 36.8 5.70722 36.8 8.80001V20C36.8 23.0928 34.2928 25.6 31.2 25.6H8.80001C5.70722 25.6 3.20001 23.0928 3.20001 20V8.80001C3.20001 5.70722 5.70722 3.20001 8.80001 3.20001ZM36.8 24.8V24C36.8 24 35.5911 26.9287 31.2 27.2H8.80001C4.31493 26.8688 3.20001 24 3.20001 24V24.8C3.20001 27.8928 5.70722 30.4 8.80001 30.4H31.2C34.2928 30.4 36.8 27.8928 36.8 24.8ZM36.8 29.6V28.8C36.8 28.8 35.5911 31.7287 31.2 32H8.80001C4.31493 31.6688 3.20001 28.8 3.20001 28.8V29.6C3.20001 32.6928 5.70722 35.2 8.80001 35.2H31.2C34.2928 35.2 36.8 32.6928 36.8 29.6ZM23.2 9.60001H20.8V8.80001C20.8 8.35818 20.4418 8.00001 20 8.00001C19.5582 8.00001 19.2 8.35818 19.2 8.80001V9.60001H18.4223C17.0968 9.60001 16.0223 10.6745 16.0223 12V12.8012C16.0223 14.1267 17.0968 15.2012 18.4223 15.2012H21.6C22.0418 15.2012 22.4 15.5594 22.4 16.0012V16.8C22.4 17.2418 22.0418 17.6 21.6 17.6H17.6196C17.5867 17.1998 17.2576 16.8795 16.8466 16.867C16.405 16.8536 16.0361 17.2007 16.0227 17.6423L16.0004 18.3757C15.9867 18.8268 16.3487 19.2 16.8 19.2H19.2V19.986C19.2 20.4278 19.5582 20.786 20 20.786C20.4418 20.786 20.8 20.4278 20.8 19.986V19.2H21.6C22.9255 19.2 24 18.1255 24 16.8V16.0012C24 14.6757 22.9255 13.6012 21.6 13.6012H18.4223C17.9805 13.6012 17.6223 13.2431 17.6223 12.8012V12C17.6223 11.5582 17.9805 11.2 18.4223 11.2H22.4238C22.5106 11.5479 22.8252 11.8057 23.2 11.8057C23.6418 11.8057 24 11.4475 24 11.0057V10.4C24 9.95818 23.6418 9.60001 23.2 9.60001Z" fill="#F21414"/>
</g>
</svg>
